<svg width="210" height="42" fill="none" xmlns="http://www.w3.org/2000/svg"><path d="M136.875 25.71h1.901a4.64 4.64 0 00.801-1.075c.25-.46.467-1.032.651-1.714.183-.682.325-1.51.425-2.482.1-.972.15-2.123.15-3.453v-5.679h12.534v14.402h2.827V33h-3.578v-3.837h-12.133V33h-3.578v-7.29zm12.659 0V14.734h-5.028v2.788c0 1.177-.034 2.2-.1 3.07a22.924 22.924 0 01-.276 2.251 8.737 8.737 0 01-.45 1.637 6.653 6.653 0 01-.6 1.152v.076h6.454zm17.614 3.76c-1.151 0-2.202-.196-3.152-.589a6.407 6.407 0 01-2.427-1.74c-.667-.784-1.184-1.747-1.551-2.89-.367-1.16-.551-2.498-.551-4.016 0-1.518.184-2.848.551-3.99.367-1.16.884-2.124 1.551-2.892a6.29 6.29 0 012.427-1.765c.95-.392 2.001-.588 3.152-.588 1.151 0 2.201.196 3.152.588a6.29 6.29 0 012.427 1.766c.667.767 1.184 1.73 1.551 2.89.367 1.143.55 2.473.55 3.99 0 1.519-.183 2.857-.55 4.017-.367 1.143-.884 2.106-1.551 2.89a6.407 6.407 0 01-2.427 1.74c-.951.393-2.001.589-3.152.589zm0-3.454c1.151 0 2.043-.383 2.677-1.15.65-.768.976-1.868.976-3.3v-2.661c0-1.433-.326-2.533-.976-3.3-.634-.768-1.526-1.152-2.677-1.152s-2.052.384-2.702 1.152c-.634.767-.951 1.867-.951 3.3v2.66c0 1.433.317 2.533.951 3.3.65.768 1.551 1.151 2.702 1.151zm10.672-.306h2.077c.267-.29.5-.649.7-1.075.201-.444.367-1.006.501-1.689.15-.682.258-1.5.325-2.455.083-.972.125-2.14.125-3.505v-5.679h12.334v17.856h-3.803V14.76h-4.828v2.762c0 1.57-.059 2.934-.175 4.093-.117 1.143-.276 2.123-.476 2.942-.2.819-.442 1.492-.725 2.021-.267.529-.559.955-.876 1.28-.517.528-1.076.903-1.676 1.125-.584.221-1.318.332-2.202.332h-1.301V25.71zm21.923-14.403H210v3.454h-6.455v14.402h-3.802V11.307zM73.184 29.163l-1.251-4.247h-5.83l-1.25 4.247H61l5.754-17.856h4.703l5.68 17.856h-3.953zm-4.128-14.326h-.125l-1.927 6.78h4.003l-1.951-6.78zm22.956 7.009h-6.655v7.317h-3.803V11.307h3.803v7.112h6.655v-7.112h3.802v17.856h-3.802v-7.317zm16.928-7.086v14.403h-3.803V14.76h-4.729v-3.453h13.26v3.453h-4.728zm9.331-3.453h3.703v8.723l-.401 3.76h.075l1.727-3.402 5.754-9.081h3.402v17.856h-3.702v-8.724l.4-3.76h-.075l-1.727 3.402-5.754 9.082h-3.402V11.307zM27.402 8.248c4.836 0 9.671.846 9.671.846v12.602s-.604 8.645-9.67 11.977c-9.066-3.332-9.67-11.977-9.67-11.977V9.094s4.834-.846 9.67-.846z" fill="#fff"/><path d="M19.324 21.742h0V10.423l.322-.052a62.61 62.61 0 011.947-.269c1.614-.196 3.76-.39 5.9-.39 2.139 0 4.284.194 5.899.39a58.319 58.319 0 012.269.32v11.32a4.794 4.794 0 01-.035.303c-.029.215-.08.528-.165.916a14.036 14.036 0 01-1.038 3.004c-1.092 2.282-3.128 4.922-6.93 6.434-3.803-1.512-5.84-4.152-6.931-6.434a14.044 14.044 0 01-1.038-3.004 11.325 11.325 0 01-.194-1.16 6.879 6.879 0 01-.006-.06z" stroke="#004A80"/><path d="M30.023 24.894l-.773-2.555h-3.605l-.774 2.555H22.49l3.558-10.746h2.909l3.512 10.746h-2.445zm-2.552-8.622h-.078l-1.191 4.08h2.475l-1.206-4.08z" fill="#004A80"/><path d="M34.375 37.732c-.854.25-2.624.553-2.624.553l.03 1.58s2.265-.39 3.35-.729c.115.527.703 1.063 1.392 1.267.85.257 2.818-.377 2.818-.377s-1.066-1.3-1.901-1.755c.372-.168.728-.372 1.088-.562.129.534.768 1.044 1.487 1.202.867.192 2.788-.592 2.788-.592s-1.439-1.523-2.307-1.714c-.037-.008-.076-.003-.113-.009.457-.31.9-.641 1.332-.988.237.466.886.844 1.567.911.885.082 2.708-.926 2.708-.926s-1.6-1.339-2.485-1.424c-.056-.006-.112-.002-.168-.004.46-.456.897-.928 1.315-1.424.31.424 1.02.679 1.716.604.886-.096 2.49-1.453 2.49-1.453s-1.82-.987-2.704-.892c-.068.007-.136.022-.203.036.357-.523.689-1.063 1.002-1.618.384.345 1.124.452 1.786.244.854-.264 2.19-1.905 2.19-1.905s-1.968-.618-2.82-.352c-.07.021-.13.066-.198.095.243-.557.46-1.123.657-1.703.433.228 1.11.223 1.696-.039.818-.369 1.963-2.162 1.963-2.162s-2.026-.373-2.844-.004c-.082.037-.149.096-.226.141.177-.75.313-1.512.412-2.292.476.181 1.2.013 1.752-.413.718-.552 1.437-2.57 1.437-2.57s-2.056.124-2.772.678c-.088.069-.156.158-.234.238.026-.815 0-1.62-.063-2.415.5.048 1.158-.291 1.599-.826.58-.706.843-2.837.843-2.837s-1.98.607-2.559 1.315c-.06.074-.097.162-.15.242a21.645 21.645 0 00-.421-1.862c.504-.041 1.1-.505 1.437-1.128.44-.808.304-2.947.304-2.947s-1.834.994-2.271 1.803c-.05.09-.073.192-.11.289a20.911 20.911 0 00-.849-1.937c.473-.156.956-.693 1.185-1.332.314-.868-.14-2.958-.14-2.958S46.891 6.059 46.58 6.93c-.039.11-.05.228-.074.342-.42-.67-.871-1.317-1.358-1.934.438-.253.805-.907.89-1.595.117-.919-.784-2.842-.784-2.842s-1.343 1.638-1.459 2.557a2.896 2.896 0 00-.018.317c-.408-.42-.832-.829-1.275-1.215-.09-.465-.396-.981-.85-1.326-.715-.542-2.77-.642-2.77-.642s.712 2.006 1.427 2.55c.316.241.69.38 1.041.436.34.289.674.585.992.897-.93.02-2.532.837-2.532.837s1.562 1.388 2.442 1.5c.674.085 1.386-.136 1.721-.533.33.414.638.847.935 1.288-.92-.18-2.608.225-2.608.225s1.214 1.723 2.046 2.041c.65.248 1.396.187 1.804-.138.232.458.443.928.64 1.407-.859-.359-2.676-.23-2.676-.23s.938 1.903 1.713 2.35c.573.334 1.285.413 1.741.2.111.406.208.817.293 1.235-.763-.535-2.589-.772-2.589-.772s.57 2.059 1.243 2.655c.507.451 1.203.674 1.69.546.044.543.066 1.093.065 1.646-.663-.683-2.308-1.315-2.308-1.315s.107 2.142.634 2.884c.39.55 1.005.926 1.503.927-.067.548-.15 1.09-.258 1.622-.448-.835-1.986-1.9-1.986-1.9s-.37 2.113-.021 2.963c.278.684.856 1.21 1.372 1.265-.155.466-.318.928-.507 1.38-.294-.89-1.792-2.214-1.792-2.214s-.605 2.054-.355 2.942c.182.653.63 1.221 1.093 1.402-.23.41-.467.81-.723 1.2-.129-.928-1.363-2.525-1.363-2.525s-.962 1.902-.875 2.826c.06.67.391 1.31.805 1.588-.317.37-.644.737-.987 1.084.069-.93-.868-2.79-.868-2.79s-1.294 1.677-1.381 2.599c-.066.682.147 1.392.511 1.74-.37.296-.747.58-1.137.845.003-.018.01-.03.013-.049.188-.908-.549-2.904-.549-2.904s-1.47 1.512-1.659 2.416c-.131.623-.015 1.28.26 1.684a17.78 17.78 0 01-1.446.675c.06-.128.113-.26.152-.398.251-.89-.35-2.939-.35-2.939s-1.57 1.4-1.818 2.293c-.173.61-.102 1.274.145 1.7zm-13.922 0c.854.25 2.625.553 2.625.553l-.031 1.58s-2.265-.39-3.35-.729c-.114.527-.703 1.063-1.391 1.267-.851.257-2.819-.377-2.819-.377s1.067-1.3 1.902-1.755c-.372-.168-.728-.372-1.09-.562-.128.534-.767 1.044-1.485 1.202-.867.192-2.789-.592-2.789-.592s1.44-1.523 2.308-1.714c.037-.008.075-.003.112-.009-.457-.31-.899-.641-1.332-.988-.236.466-.886.844-1.567.911-.884.082-2.707-.926-2.707-.926s1.6-1.339 2.484-1.424c.056-.006.112-.002.169-.004a21.62 21.62 0 01-1.316-1.424c-.309.424-1.02.679-1.716.604-.885-.096-2.49-1.453-2.49-1.453s1.82-.987 2.705-.892c.067.007.136.022.202.036a22.22 22.22 0 01-1.002-1.618c-.384.345-1.123.452-1.786.244-.853-.264-2.19-1.905-2.19-1.905s1.968-.618 2.82-.352c.071.021.13.066.198.095a21.598 21.598 0 01-.657-1.703c-.433.228-1.11.223-1.696-.039-.818-.369-1.963-2.162-1.963-2.162s2.027-.373 2.845-.004c.082.037.148.096.225.141a22.192 22.192 0 01-.411-2.292c-.477.181-1.2.013-1.753-.413-.718-.552-1.437-2.57-1.437-2.57s2.056.124 2.773.678c.087.069.155.158.233.238-.026-.815 0-1.62.063-2.415-.5.048-1.158-.291-1.599-.826-.58-.706-.843-2.837-.843-2.837s1.98.607 2.559 1.315c.06.074.097.162.15.242.112-.631.256-1.252.422-1.862-.505-.041-1.101-.505-1.438-1.128-.44-.808-.304-2.947-.304-2.947s1.834.994 2.272 1.803c.049.09.072.192.11.289.25-.665.536-1.309.848-1.937-.473-.156-.956-.693-1.185-1.332-.313-.868.141-2.958.141-2.958S7.936 6.059 8.248 6.93c.039.11.05.228.074.342.42-.67.872-1.317 1.358-1.934-.437-.253-.804-.907-.89-1.595C8.673 2.823 9.573.9 9.573.9s1.344 1.638 1.46 2.557c.012.105.017.211.017.317.409-.42.832-.829 1.276-1.215.09-.465.396-.981.85-1.326.715-.542 2.77-.642 2.77-.642s-.713 2.006-1.427 2.55c-.317.241-.69.38-1.042.436-.34.289-.673.585-.992.897.931.02 2.532.837 2.532.837s-1.562 1.388-2.442 1.5c-.674.085-1.385-.136-1.72-.533-.33.414-.639.847-.936 1.288.92-.18 2.608.225 2.608.225s-1.213 1.723-2.046 2.041c-.65.248-1.396.187-1.804-.138-.231.458-.443.928-.639 1.407.858-.359 2.676-.23 2.676-.23s-.939 1.903-1.713 2.35c-.573.334-1.286.413-1.742.2-.11.406-.208.817-.293 1.235.764-.535 2.59-.772 2.59-.772s-.57 2.059-1.244 2.655c-.507.451-1.202.674-1.69.546a20.155 20.155 0 00-.064 1.646c.663-.683 2.307-1.315 2.307-1.315s-.107 2.142-.634 2.884c-.389.55-1.005.926-1.503.927.068.548.15 1.09.258 1.622.449-.835 1.986-1.9 1.986-1.9s.37 2.113.022 2.963c-.279.684-.857 1.21-1.373 1.265.155.466.319.928.508 1.38.293-.89 1.792-2.214 1.792-2.214s.604 2.054.354 2.942c-.182.653-.63 1.221-1.092 1.402.23.41.467.81.723 1.2.128-.928 1.362-2.525 1.362-2.525s.962 1.902.876 2.826c-.061.67-.392 1.31-.806 1.588.318.37.645.737.987 1.084-.068-.93.868-2.79.868-2.79s1.295 1.677 1.382 2.599c.065.682-.147 1.392-.512 1.74.37.296.748.58 1.137.845-.003-.018-.01-.03-.013-.049-.188-.908.55-2.904.55-2.904s1.47 1.512 1.658 2.416c.131.623.015 1.28-.259 1.684.472.245.953.473 1.446.675a2.645 2.645 0 01-.152-.398c-.252-.89.349-2.939.349-2.939s1.57 1.4 1.819 2.293c.172.61.102 1.274-.146 1.7z" fill="#fff"/></svg>